<svg xmlns="http://www.w3.org/2000/svg" viewBox="0 0 32 32" fill="none">
  <rect width="32" height="32" rx="8" fill="#25D366"/>
  <path d="M16 5C9.925 5 5 9.925 5 16c0 2.025.538 3.927 1.481 5.565L5 27l5.6-1.463A10.928 10.928 0 0016 27c6.075 0 11-4.925 11-11S22.075 5 16 5zm0 20c-1.784 0-3.463-.477-4.912-1.313l-.35-.207-3.326.87.885-3.234-.228-.362A8.956 8.956 0 017 16c0-4.963 4.037-9 9-9s9 4.037 9 9-4.037 9-9 9zm4.944-6.794c-.272-.136-1.607-.793-1.856-.884-.25-.09-.431-.136-.612.136-.181.272-.702.884-.861 1.066-.158.181-.317.204-.589.068-.272-.136-1.148-.423-2.187-1.35-.808-.72-1.354-1.61-1.512-1.882-.158-.272-.017-.419.119-.554.122-.123.272-.317.408-.476.136-.158.181-.272.272-.453.09-.181.045-.34-.023-.476-.068-.136-.612-1.474-.839-2.019-.22-.53-.446-.458-.612-.467l-.521-.009c-.181 0-.476.068-.726.34-.25.272-.952.931-.952 2.269s.975 2.632 1.111 2.813c.136.181 1.919 2.928 4.649 4.107.65.28 1.158.448 1.554.573.652.207 1.247.178 1.716.108.524-.078 1.607-.657 1.834-1.292.227-.635.227-1.179.159-1.292-.068-.113-.25-.181-.522-.317z" fill="white"/>
</svg>
